<?xml version="1.0" standalone="no"?>
<!DOCTYPE svg PUBLIC "-//W3C//DTD SVG 1.1//EN" "http://www.w3.org/Graphics/SVG/1.1/DTD/svg11.dtd">
<svg width="100%" height="100%" viewBox="0 0 284 284" version="1.1" xmlns="http://www.w3.org/2000/svg" xmlns:xlink="http://www.w3.org/1999/xlink" xml:space="preserve" style="fill-rule:evenodd;clip-rule:evenodd;stroke-linejoin:round;stroke-miterlimit:1.41421;">
    <g transform="matrix(0.64762,0,0,0.64762,0,0)">
        <path d="M409.141,109.203C389.533,75.611 362.936,49.014 329.343,29.407C295.751,9.801 259.065,0 219.281,0C179.5,0 142.812,9.801 109.22,29.407C75.623,49.011 49.026,75.608 29.42,109.203C9.809,142.8 0.008,179.485 0.008,219.267C0.008,263.617 12.093,303.878 36.266,340.034C60.438,376.206 92.129,402.946 131.339,420.266C130.577,399.901 131.815,383.057 135.048,369.734L163.315,250.386C158.555,241.057 156.176,229.456 156.176,215.555C156.176,199.38 160.265,185.866 168.451,175.014C176.637,164.164 186.628,158.74 198.43,158.74C207.944,158.74 215.271,161.88 220.412,168.16C225.554,174.443 228.117,182.341 228.117,191.86C228.117,197.756 227.018,204.944 224.828,213.414C222.64,221.885 219.787,231.687 216.266,242.823C212.745,253.955 210.221,262.859 208.7,269.515C206.037,281.123 208.224,291.068 215.267,299.353C222.309,307.631 231.639,311.776 243.25,311.776C263.615,311.776 280.315,300.452 293.357,277.804C306.395,255.149 312.911,227.645 312.911,195.29C312.911,170.352 304.869,150.08 288.782,134.477C272.697,118.868 250.286,111.06 221.543,111.06C189.382,111.06 163.351,121.387 143.461,142.038C123.57,162.692 113.625,187.39 113.625,216.129C113.625,233.261 118.479,247.634 128.185,259.241C131.42,263.047 132.468,267.139 131.325,271.52C130.944,272.663 130.184,275.517 129.041,280.082C127.903,284.647 127.138,287.604 126.76,288.933C125.239,295.024 121.62,296.927 115.91,294.641C101.256,288.556 90.119,277.989 82.508,262.952C74.894,247.915 71.086,230.496 71.086,210.706C71.086,197.953 73.133,185.201 77.226,172.45C81.315,159.694 87.694,147.372 96.352,135.475C105.015,123.575 115.388,113.058 127.475,103.926C139.557,94.791 154.262,87.464 171.583,81.944C188.904,76.424 207.555,73.664 227.542,73.664C254.574,73.664 278.837,79.659 300.342,91.65C321.854,103.642 338.267,119.152 349.594,138.187C360.921,157.223 366.581,177.59 366.581,199.288C366.581,227.837 361.633,253.531 351.739,276.374C341.843,299.213 327.852,317.152 309.766,330.187C291.683,343.229 271.129,349.748 248.091,349.748C236.484,349.748 225.635,347.034 215.543,341.613C205.458,336.186 198.509,329.766 194.704,322.34C186.138,356.025 180.998,376.11 179.284,382.58C175.668,396.088 168.246,411.699 157.014,429.399C177.381,435.49 198.126,438.529 219.254,438.529C259.035,438.529 295.724,428.728 329.316,409.119C362.911,389.517 389.508,362.92 409.11,329.328C428.716,295.729 438.517,259.041 438.517,219.263C438.527,179.485 428.74,142.795 409.141,109.203Z" style="fill:rgb(42,40,40);fill-rule:nonzero;"/>
    </g>
</svg>
