<?xml version="1.0" standalone="no"?>
<!DOCTYPE svg PUBLIC "-//W3C//DTD SVG 1.1//EN" "http://www.w3.org/Graphics/SVG/1.1/DTD/svg11.dtd">
<svg width="100%" height="100%" viewBox="0 0 284 284" version="1.1" xmlns="http://www.w3.org/2000/svg" xmlns:xlink="http://www.w3.org/1999/xlink" xml:space="preserve" style="fill-rule:evenodd;clip-rule:evenodd;stroke-linejoin:round;stroke-miterlimit:1.41421;">
    <g transform="matrix(0.647612,7.23404e-22,7.23404e-22,0.647609,-2.95352e-09,-7.23404e-25)">
        <path d="M421.981,16.562C410.941,5.519 397.711,0 382.298,0L56.248,0C40.83,0 27.604,5.521 16.561,16.562C5.52,27.6 0.001,40.828 0.001,56.243L0.001,382.29C0.001,397.703 5.519,410.934 16.561,421.973C27.604,433.013 40.833,438.536 56.248,438.536L382.294,438.536C397.704,438.536 410.938,433.013 421.978,421.973C433.021,410.934 438.535,397.703 438.535,382.29L438.535,56.243C438.534,40.825 433.021,27.604 421.981,16.562ZM157.462,158.025C174.686,141.373 195.386,133.043 219.559,133.043C243.919,133.043 264.712,141.373 281.94,158.025C299.168,174.68 307.777,194.81 307.777,218.411C307.777,242.009 299.168,262.14 281.94,278.79C264.712,295.449 243.926,303.778 219.559,303.778C195.387,303.778 174.689,295.442 157.462,278.79C140.234,262.138 131.621,242.009 131.621,218.411C131.621,194.81 140.234,174.681 157.462,158.025ZM388.865,370.589C388.865,375.534 387.147,379.672 383.724,383.005C380.291,386.335 376.205,388.001 371.442,388.001L66.242,388.001C61.294,388.001 57.151,386.335 53.823,383.005C50.49,379.679 48.825,375.534 48.825,370.589L48.825,185.575L89.08,185.575C85.275,197.568 83.372,210.037 83.372,222.977C83.372,259.53 96.694,290.692 123.341,316.488C149.991,342.274 182.062,355.173 219.558,355.173C244.302,355.173 267.141,349.27 288.085,337.47C309.022,325.663 325.571,309.631 337.761,289.358C349.944,269.086 356.035,246.958 356.035,222.978C356.035,210.038 354.125,197.572 350.32,185.576L388.867,185.576L388.867,370.59L388.865,370.59L388.865,370.589ZM388.865,115.626C388.865,121.146 386.962,125.81 383.149,129.616C379.344,133.425 374.683,135.327 369.16,135.327L319.484,135.327C313.967,135.327 309.299,133.424 305.494,129.616C301.688,125.81 299.786,121.146 299.786,115.626L299.786,68.522C299.786,63.192 301.688,58.577 305.494,54.674C309.3,50.773 313.968,48.82 319.484,48.82L369.16,48.82C374.683,48.82 379.345,50.772 383.149,54.674C386.961,58.577 388.865,63.192 388.865,68.522L388.865,115.626Z" style="fill:rgb(42,40,40);fill-rule:nonzero;"/>
    </g>
</svg>
